<?xml version="1.0" encoding="utf-8"?>
<!-- Generator: Adobe Illustrator 23.0.3, SVG Export Plug-In . SVG Version: 6.00 Build 0)  -->
<svg version="1.1" id="Layer_1" xmlns="http://www.w3.org/2000/svg" xmlns:xlink="http://www.w3.org/1999/xlink" x="0px" y="0px"
	 viewBox="0 0 1020.86 444.86" style="enable-background:new 0 0 1020.86 444.86;" xml:space="preserve">
<style type="text/css">
	.st0{font-family:'TheQueen-Regular';}
	.st1{font-size:539.4628px;}
	.st2{font-size:379.4288px;}
	.st3{display:none;}
	.st4{display:none;fill:none;stroke:#000000;stroke-width:7;stroke-miterlimit:10;}
</style>
<text transform="matrix(1 0 0 1 108.7165 414.0815)" class="st0 st1">C</text>
<text transform="matrix(0.844 0 0 1 462.1267 402.1404)" class="st0 st2">F</text>
<path d="M601.06,118.39V98.68h5.37v-2.27h-1.44l-12.83-11.8h0.43v-1.49h-0.47l-5.28-9.85v-0.03c-0.05,0-0.11,0.01-0.17,0.01
	c-0.04,0-0.09,0-0.13,0v0.02l-5.28,9.85h-0.47v1.49h-0.91v-0.98h-1.96v0.98h-1.73v-0.98h-1.95v0.98h-2.29v-0.98h-1.95v0.98h-0.69
	l-3.58-3.29v-1.62h1.91v-1.64h-0.51l-5.81-10.83v-0.03c-0.06,0-0.12,0.01-0.18,0.01c-0.05,0-0.1,0-0.14-0.01v0.03l-5.81,10.83h-0.51
	v0.14l-8.51-8.36l-4.11,4.04v-7.79h4.26v-3.65h-1.14l-12.93-24.11v-0.11c-0.11,0.02-0.22,0.02-0.34,0.02
	c-0.14,0-0.27-0.01-0.39-0.03v0.12l-12.93,24.11h-1.15v3.65h4.26v7.07l-3.37-3.31l-8.36,8.22h-0.18l-5.81-10.83V67.2
	c-0.03,0-0.06,0-0.08,0c-0.09,0-0.17-0.01-0.24-0.01v0.05l-5.81,10.83h-0.51v1.64h1.91v4.91h-1.41v-0.98h-1.95v0.98h-1.73v-0.98
	h-1.95v0.98h-2.29v-0.98h-1.95v0.98h-1.71v-1.49h-0.46l-5.28-9.85v-0.04c-0.04,0-0.09,0-0.14,0c-0.06,0-0.11,0-0.16-0.01v0.04
	l-5.28,9.85h-0.47v3.27l-10.89,10.02h-1.45v2.27h5.37v19.71h-5.1v8.23h144.92v-8.23H601.06z M556.59,80.09l-0.39-0.38h0.39V80.09z"
	/>
<text transform="matrix(1.328 0 0 1 614.2167 414.0815)" class="st0 st1">S</text>
<text transform="matrix(1.328 0 0 1 605.7465 391.3028)" class="st3 st0 st1">S</text>
<path class="st4" d="M863.84,654.08H-26.97c-28.7,0-51.97-23.27-51.97-51.97V41.69c0-28.7,23.27-51.97,51.97-51.97h890.81
	c28.7,0,51.97,23.27,51.97,51.97v560.42C915.81,630.81,892.54,654.08,863.84,654.08z"/>
</svg>
